<?xml version="1.0" standalone="no"?>
<!DOCTYPE svg PUBLIC "-//W3C//DTD SVG 20010904//EN"
 "http://www.w3.org/TR/2001/REC-SVG-20010904/DTD/svg10.dtd">
<svg version="1.0" xmlns="http://www.w3.org/2000/svg"
 width="1040.000000pt" height="1040.000000pt" viewBox="0 0 1040.000000 1040.000000"
 preserveAspectRatio="xMidYMid meet">
<metadata>
Created by potrace 1.11, written by Peter Selinger 2001-2013
</metadata>
<g transform="translate(0.000000,1040.000000) scale(0.100000,-0.100000)"
fill="#000000" stroke="none">
<path d="M5038 10395 c-2 -1 -28 -5 -58 -9 -98 -11 -134 -17 -215 -37 -44 -11
-90 -22 -102 -24 -12 -3 -35 -11 -50 -17 -16 -7 -33 -12 -39 -13 -9 0 -44 -14
-124 -48 -14 -6 -28 -10 -32 -9 -3 1 -12 -5 -18 -13 -7 -8 -18 -15 -25 -15
-17 0 -137 -65 -208 -111 -32 -22 -62 -39 -67 -39 -5 0 -10 -4 -12 -8 -1 -5
-27 -26 -57 -48 -30 -21 -64 -47 -76 -59 -12 -11 -50 -47 -86 -81 -225 -212
-396 -480 -498 -780 -22 -65 -43 -130 -46 -144 -22 -102 -36 -181 -39 -216 -1
-22 -5 -45 -8 -50 -8 -12 -2 -408 6 -459 7 -41 29 -166 31 -175 1 -3 5 -18 9
-35 12 -46 46 -157 55 -180 27 -66 55 -134 65 -160 6 -16 14 -32 18 -35 6 -5
29 -58 30 -70 0 -3 8 -16 18 -30 10 -14 32 -49 49 -78 92 -156 279 -367 447
-502 16 -13 104 -73 205 -141 89 -59 369 -179 479 -204 8 -2 15 -4 15 -5 0 -1
8 -3 19 -5 10 -2 39 -8 65 -14 84 -20 111 -24 241 -36 82 -8 310 -12 310 -5 0
3 12 5 28 6 61 2 158 16 242 34 25 6 54 12 65 14 11 3 67 21 125 41 58 20 114
39 125 42 51 16 284 140 297 158 5 7 8 7 8 0 0 -5 7 -1 15 9 8 11 15 17 15 13
0 -3 44 27 98 67 126 95 296 262 362 356 14 19 35 45 47 58 11 14 27 36 35 51
7 14 15 28 18 31 31 29 175 316 186 370 2 8 7 23 13 35 13 27 42 114 47 145 3
14 10 43 16 65 6 22 12 47 13 55 2 8 5 29 8 45 7 38 18 127 23 180 7 94 3 375
-6 375 -3 0 -5 15 -5 33 0 17 -2 37 -4 42 -6 11 -7 16 -16 84 -3 24 -10 51
-15 60 -4 9 -8 19 -8 24 -1 24 -19 85 -54 182 -154 424 -430 765 -813 1001
-105 65 -268 144 -325 159 -8 2 -28 8 -45 15 -16 6 -31 11 -32 11 -2 0 -18 6
-38 15 -19 8 -35 12 -35 9 0 -2 -12 0 -27 6 -31 12 -31 12 -123 29 -36 7 -72
15 -80 17 -8 3 -31 7 -50 9 -49 4 -408 13 -412 9z"/>
<path d="M2175 7122 c-2 -2 -25 -5 -52 -8 -76 -6 -131 -14 -203 -29 -14 -3
-34 -7 -45 -9 -11 -2 -40 -9 -65 -16 -25 -7 -52 -14 -60 -16 -34 -8 -106 -36
-119 -47 -8 -7 -16 -11 -18 -9 -1 1 -4 2 -5 1 -2 0 -12 -2 -24 -4 -28 -6 -227
-105 -236 -119 -4 -6 -8 -8 -8 -4 0 15 -207 -128 -298 -207 -71 -61 -212 -208
-257 -270 -17 -22 -32 -42 -36 -45 -3 -3 -32 -45 -64 -95 -133 -204 -244 -477
-280 -690 -3 -16 -7 -41 -10 -55 -27 -148 -27 -481 0 -625 2 -11 4 -20 5 -20
1 0 4 -13 6 -30 3 -16 14 -66 25 -110 12 -44 22 -84 23 -90 2 -5 6 -19 11 -30
4 -11 21 -56 37 -100 16 -44 43 -104 59 -134 16 -30 29 -58 29 -63 0 -4 18
-37 40 -73 22 -36 40 -69 40 -74 0 -5 4 -11 8 -13 4 -1 23 -25 42 -53 19 -27
37 -52 40 -55 3 -3 17 -21 31 -40 75 -100 216 -238 339 -331 93 -70 163 -115
276 -178 88 -48 286 -128 364 -146 8 -1 44 -11 80 -20 36 -10 79 -19 95 -22
17 -2 41 -6 55 -9 178 -32 532 -24 690 16 19 5 49 12 67 15 31 5 196 57 238
74 162 69 391 191 420 225 6 7 32 27 60 46 65 44 179 150 276 256 49 53 146
185 195 264 51 83 143 269 160 325 2 6 15 44 30 85 28 79 58 198 68 265 3 22
8 50 10 63 16 78 25 399 12 457 -2 11 -7 49 -11 84 -9 86 -57 276 -95 381 -34
95 -47 124 -97 225 -20 39 -41 80 -47 92 -6 13 -14 23 -18 23 -5 0 -8 6 -8 13
0 7 -9 23 -20 35 -11 12 -20 25 -20 29 0 5 -6 16 -14 25 -8 9 -23 29 -33 45
-65 100 -323 366 -375 386 -10 3 -18 11 -18 17 0 5 -5 10 -11 10 -6 0 -29 15
-52 33 -52 41 -157 103 -274 161 -82 41 -303 122 -360 132 -14 3 -53 11 -87
19 -79 17 -144 26 -231 31 -38 2 -72 4 -75 5 -11 3 -202 4 -205 1z"/>
<path d="M7996 7123 c-1 -2 -36 -5 -77 -8 -62 -5 -151 -19 -254 -41 -11 -2
-30 -6 -43 -8 -12 -3 -26 -7 -30 -10 -5 -3 -19 -7 -33 -9 -13 -3 -46 -14 -74
-25 -27 -11 -53 -20 -57 -21 -85 -19 -405 -191 -478 -258 -14 -13 -31 -23 -38
-23 -7 0 -11 -4 -7 -9 3 -5 -4 -12 -15 -16 -25 -8 -260 -238 -260 -255 0 -6
-4 -9 -9 -5 -5 3 -12 -3 -15 -12 -3 -10 -17 -30 -30 -44 -14 -15 -22 -30 -19
-33 4 -3 2 -6 -4 -6 -9 0 -70 -85 -108 -151 -45 -78 -73 -130 -85 -160 -7 -18
-19 -41 -27 -50 -7 -8 -13 -23 -13 -32 0 -9 -4 -19 -10 -22 -5 -3 -10 -12 -10
-20 0 -8 -4 -24 -9 -37 -5 -13 -9 -26 -10 -31 0 -4 -8 -21 -16 -37 -9 -17 -13
-30 -10 -30 3 0 1 -8 -4 -18 -6 -11 -12 -30 -15 -43 -3 -13 -10 -42 -16 -64
-11 -40 -13 -51 -30 -155 -24 -143 -31 -359 -15 -485 4 -33 9 -71 10 -85 4
-33 13 -79 31 -165 14 -66 22 -92 40 -140 9 -26 15 -47 16 -62 1 -7 5 -13 8
-13 4 0 10 -14 14 -31 8 -42 143 -316 166 -339 3 -3 11 -17 18 -31 8 -14 51
-73 96 -130 109 -138 248 -275 359 -356 17 -12 43 -31 55 -40 80 -60 336 -201
376 -207 6 -1 16 -4 21 -8 11 -6 131 -47 210 -71 28 -8 82 -20 120 -27 39 -7
81 -16 95 -19 80 -23 478 -20 600 4 14 3 41 8 60 11 19 4 60 13 90 21 30 8 60
16 65 17 6 1 30 9 55 16 25 7 48 13 53 12 4 -1 7 3 7 8 0 6 6 10 14 10 8 0 25
4 38 9 13 5 26 9 31 9 4 1 20 8 35 17 15 8 38 19 52 25 14 5 32 14 40 18 8 5
26 15 39 21 24 13 50 28 126 71 139 80 406 321 505 455 24 33 47 62 50 65 11
9 80 120 80 129 0 5 4 11 8 13 10 4 92 165 120 233 41 103 64 163 67 181 2 11
4 19 5 19 1 0 3 7 5 15 2 8 6 25 9 38 3 12 8 31 10 42 3 11 7 24 10 28 2 4 7
28 10 53 3 25 7 52 10 60 19 53 29 398 15 509 -5 41 -11 89 -13 105 -7 55 -38
189 -47 207 -5 10 -7 18 -5 18 3 0 -12 49 -33 108 -43 122 -133 308 -192 396
-21 32 -39 62 -39 66 0 5 -3 10 -7 12 -5 2 -28 30 -53 63 -91 123 -235 268
-355 357 -28 21 -54 41 -60 45 -34 27 -143 93 -153 93 -7 0 -12 4 -12 8 0 8
-208 112 -224 112 -5 0 -22 6 -39 14 -66 30 -206 72 -302 91 -155 31 -380 49
-402 32 -8 -5 -13 -6 -13 0 0 7 -67 13 -74 6z"/>
<path d="M4817 6223 c-2 -5 -2 -132 -1 -283 1 -151 5 -655 9 -1120 4 -465 8
-965 9 -1111 2 -146 6 -271 10 -277 4 -7 3 -12 -3 -12 -5 0 -8 -10 -6 -22 2
-13 7 -66 10 -118 8 -132 11 -158 30 -265 3 -16 14 -70 25 -120 11 -49 23
-101 26 -114 3 -13 9 -32 14 -41 5 -9 11 -28 14 -41 17 -87 163 -408 236 -519
16 -25 33 -52 37 -60 6 -15 137 -194 158 -216 5 -6 35 -40 65 -75 30 -35 69
-77 87 -94 77 -74 132 -124 183 -165 30 -25 57 -47 60 -50 15 -17 131 -69 165
-75 59 -10 89 -12 99 -7 4 2 25 6 45 8 91 7 207 98 258 202 24 49 27 69 27
147 0 72 -4 100 -22 139 -27 59 -82 135 -99 136 -6 0 -13 3 -15 8 -1 4 -30 29
-63 57 -71 58 -179 167 -232 233 -21 26 -41 49 -45 50 -5 2 -8 10 -8 18 0 8
-4 14 -8 14 -7 0 -17 14 -75 109 -28 47 -90 162 -92 171 -1 3 -9 22 -18 44 -9
21 -17 41 -17 43 0 3 -6 19 -14 36 -17 39 -45 132 -52 172 -2 17 -8 39 -11 50
-8 25 -11 40 -18 90 -14 103 -16 125 -18 192 -1 40 -6 73 -10 73 -4 0 -4 8 0
18 10 21 9 644 0 659 -4 7 -4 14 0 16 10 6 9 129 0 144 -4 7 -4 14 0 16 10 6
9 769 0 784 -4 6 -3 13 0 17 8 8 11 126 3 126 -4 0 -4 31 0 110 1 14 -1 185
-5 380 -4 195 -7 393 -8 438 l-1 84 -60 -8 c-34 -4 -85 -7 -113 -8 -29 -1 -53
-3 -53 -6 0 -3 -56 -5 -125 -5 -69 0 -125 2 -125 5 0 3 -19 5 -43 6 -41 0
-123 9 -179 19 -15 3 -28 2 -31 -2z"/>
<path d="M1959 2940 c-1 -3 -1 -8 0 -12 0 -4 3 -31 6 -60 5 -50 18 -137 31
-203 19 -106 18 -99 32 -150 6 -22 13 -51 15 -65 5 -28 26 -106 35 -130 3 -8
6 -17 7 -20 1 -3 5 -12 8 -20 4 -8 8 -27 11 -42 3 -15 8 -33 13 -40 4 -7 8
-17 9 -23 1 -5 8 -23 15 -40 7 -16 13 -32 14 -35 6 -22 22 -64 42 -110 52
-115 75 -166 86 -185 6 -11 27 -51 48 -90 278 -524 743 -1001 1258 -1288 46
-26 85 -47 87 -47 3 0 22 -11 44 -25 22 -14 40 -23 40 -20 0 2 16 -4 35 -15
52 -29 217 -98 325 -136 94 -32 207 -67 212 -64 2 1 16 -3 31 -9 16 -6 63 -18
105 -27 43 -9 84 -18 92 -19 8 -2 15 -4 15 -5 0 -1 15 -4 80 -14 11 -2 20 -4
20 -5 0 -1 18 -4 40 -7 22 -2 56 -6 75 -9 197 -26 646 -27 810 -1 14 2 46 7
71 10 49 7 83 13 124 21 14 3 37 7 53 10 15 3 42 10 61 15 19 5 37 7 39 5 3
-2 12 0 22 5 9 5 28 11 41 13 13 3 44 11 69 18 25 7 47 13 50 14 67 19 158 50
169 59 8 6 15 10 15 8 2 -7 205 73 288 115 27 13 49 22 50 21 2 -1 22 11 45
25 24 15 45 27 48 27 3 0 42 21 86 47 44 27 94 56 112 67 18 10 34 22 37 26 3
4 19 14 37 23 17 9 37 22 45 29 7 7 31 25 53 40 22 15 54 39 70 53 17 13 35
28 40 32 112 85 340 301 415 394 18 21 42 49 55 63 13 14 36 43 52 63 15 21
35 46 44 56 9 10 34 43 55 75 21 31 45 63 51 70 7 7 13 17 13 22 0 5 6 15 13
22 24 24 112 174 169 288 18 36 36 67 39 70 4 3 10 16 14 30 4 14 20 52 35 85
44 96 60 133 60 138 0 3 5 18 12 34 6 15 12 30 12 33 1 3 6 19 13 35 13 35 54
163 58 185 2 8 10 41 20 72 9 31 18 67 21 80 2 13 6 34 10 48 3 14 7 39 9 55
1 17 5 37 8 45 8 22 26 136 31 195 1 17 4 35 7 40 20 37 -3 47 -74 32 -21 -4
-79 -10 -130 -12 -51 -3 -104 -7 -119 -9 -16 -2 -28 1 -28 6 0 5 -8 4 -19 -1
-10 -6 -20 -9 -22 -6 -2 2 -42 6 -89 10 -47 3 -107 9 -135 12 -27 4 -63 7 -79
7 -32 1 -36 -8 -50 -109 -10 -67 -16 -96 -43 -200 -14 -55 -26 -104 -27 -110
-1 -5 -4 -14 -8 -20 -3 -5 -11 -30 -18 -54 -6 -24 -16 -55 -22 -70 -6 -14 -12
-28 -12 -31 -8 -41 -172 -373 -187 -378 -5 -2 -9 -8 -9 -13 0 -9 -100 -165
-127 -199 -6 -8 -42 -53 -80 -100 -86 -108 -254 -278 -358 -362 -79 -64 -221
-168 -230 -168 -2 0 -23 -13 -47 -29 -38 -25 -176 -102 -218 -121 -8 -4 -29
-15 -47 -24 -17 -9 -38 -16 -46 -16 -9 0 -17 -3 -19 -7 -11 -27 -424 -152
-548 -167 -14 -2 -39 -6 -55 -10 -145 -32 -546 -38 -715 -11 -19 3 -53 8 -75
10 -161 18 -523 129 -690 212 -116 58 -291 157 -305 172 -3 3 -34 26 -70 50
-36 24 -87 63 -115 85 -27 23 -59 48 -70 56 -81 62 -385 392 -385 419 0 5 -4
11 -9 13 -12 4 -128 179 -156 234 -11 21 -23 41 -26 44 -3 3 -11 20 -18 38 -8
17 -18 32 -24 32 -6 0 -7 3 -4 7 4 3 3 11 -2 17 -13 16 -103 229 -111 261 -2
9 -11 36 -36 100 -4 11 -9 29 -11 40 -2 11 -6 27 -10 35 -3 8 -7 22 -9 30 -1
8 -10 44 -19 80 -9 36 -18 76 -20 90 -3 14 -10 58 -16 98 -7 45 -17 76 -26 79
-7 3 -39 0 -71 -6 -31 -6 -106 -13 -165 -16 -60 -3 -113 -7 -118 -11 -5 -3 -9
-1 -9 5 0 6 -11 6 -29 1 -16 -4 -32 -6 -34 -3 -3 2 -46 6 -97 9 -51 2 -97 7
-102 10 -13 8 -88 11 -89 4z"/>
</g>
</svg>
